# Blender v2.93.6 OBJ File: 'master.blend'
# www.blender.org
o angel_door_Cube.030
v 0.250000 1.000000 -0.500000
v 0.250000 -1.000000 -0.500000
v -0.250000 1.000000 -0.500000
v -0.250000 -1.000000 -0.500000
v 0.250000 1.000000 0.500000
v 0.250000 -1.000000 0.500000
v -0.250000 1.000000 0.500000
v -0.250000 -1.000000 0.500000
vt 0.166667 0.166667
vt 0.250000 0.333333
vt 0.166667 0.333333
vt 0.291667 0.333333
vt 0.250000 0.166667
vt 0.291667 0.166667
vt 0.291667 0.250000
vt 0.333333 0.166667
vt 0.333333 0.250000
vt 0.166667 0.166667
vt 0.250000 0.333333
vt 0.250000 0.166667
vt 0.333333 0.333333
vt 0.291667 0.250000
vt 0.333333 0.250000
vt 0.250000 0.166667
vt 0.291667 0.333333
vt 0.250000 0.333333
vt 0.291667 0.166667
vt 0.166667 0.333333
vn -1.0000 0.0000 0.0000
vn 0.0000 0.0000 -1.0000
vn 0.0000 1.0000 0.0000
vn 1.0000 0.0000 0.0000
vn 0.0000 -1.0000 0.0000
vn 0.0000 0.0000 1.0000
s off
f 7/1/1 4/2/1 8/3/1
f 2/4/2 3/5/2 1/6/2
f 3/7/3 5/8/3 1/9/3
f 5/10/4 2/11/4 1/12/4
f 4/13/5 6/14/5 8/15/5
f 5/16/6 8/17/6 6/18/6
f 7/1/1 3/5/1 4/2/1
f 2/4/2 4/2/2 3/5/2
f 3/7/3 7/19/3 5/8/3
f 5/10/4 6/20/4 2/11/4
f 4/13/5 2/4/5 6/14/5
f 5/16/6 7/19/6 8/17/6
