# Blender v2.93.6 OBJ File: 'master.blend'
# www.blender.org
o bottomless.002_Cube.011
v -1.000000 -1.000000 -1.000000
v 1.000000 -1.000000 1.000000
v -1.000000 -1.000000 1.000000
v 1.000000 1.000000 -1.000000
v 1.000000 1.000000 1.000000
v 1.000000 -1.000000 -1.000000
v -1.000000 1.000000 -1.000000
v -1.000000 1.000000 1.000000
vt 0.166667 0.833333
vt 0.000000 0.666667
vt 0.166667 0.666667
vt 0.333333 0.833333
vt 0.166667 1.000000
vt 0.166667 0.833333
vt 1.000000 1.000000
vt 0.833333 0.833333
vt 1.000000 0.833333
vt -0.000000 0.833333
vt 0.333333 1.000000
vt 0.833333 1.000000
vn 1.0000 -0.0000 0.0000
vn 0.0000 1.0000 -0.0000
vn -1.0000 -0.0000 0.0000
s 1
f 3/1/1 7/2/1 8/3/1
f 6/4/2 3/5/2 2/6/2
f 6/7/3 5/8/3 4/9/3
f 3/1/1 1/10/1 7/2/1
f 6/4/2 1/11/2 3/5/2
f 6/7/3 2/12/3 5/8/3
