# Blender v2.93.6 OBJ File: 'master.blend'
# www.blender.org
o bottomless.003_Cube.012
v -1.000000 -1.000000 -1.000000
v 1.000000 -1.000000 1.000000
v -1.000000 -1.000000 1.000000
v 1.000000 -1.000000 -1.000000
v -1.000000 1.000000 -1.000000
v -1.000000 1.000000 1.000000
vt 0.166667 0.833333
vt 0.000000 0.666667
vt 0.166667 0.666667
vt 0.333333 0.833333
vt 0.166667 1.000000
vt 0.166667 0.833333
vt -0.000000 0.833333
vt 0.333333 1.000000
vn 1.0000 -0.0000 0.0000
vn 0.0000 1.0000 -0.0000
s 1
f 3/1/1 5/2/1 6/3/1
f 4/4/2 3/5/2 2/6/2
f 3/1/1 1/7/1 5/2/1
f 4/4/2 1/8/2 3/5/2
