# Blender v2.93.6 OBJ File: 'master.blend'
# www.blender.org
o chest_Cube.018
v 0.250000 1.000422 -0.125000
v 0.253681 0.769799 -0.125686
v -0.250000 1.000422 -0.125000
v -0.250000 0.770422 -0.125000
v 0.250000 1.000422 0.125000
v 0.250000 0.770422 0.125000
v -0.250000 1.000422 0.125000
v -0.250000 0.770422 0.125000
v -0.250000 0.770422 0.093750
v 0.253681 0.769799 -0.094436
v -0.250000 0.770422 -0.093750
v 0.250000 0.770422 0.093750
v 0.253641 0.769581 -0.125479
v 0.213345 0.720742 -0.081089
v -0.218750 0.770422 -0.125000
v 0.218750 0.770422 0.125000
v 0.222431 0.769799 -0.125686
v -0.218750 0.770422 0.125000
v 0.218750 0.770422 0.093750
v -0.218750 0.770422 0.093750
v -0.218750 0.770422 -0.093750
v 0.222431 0.769799 -0.094436
v -0.250000 0.770742 -0.125000
v -0.213345 0.720742 -0.081089
v -0.218750 0.966823 0.093750
v -0.218750 0.966823 -0.093750
v -0.193053 0.739464 -0.064701
v -0.193053 0.739464 0.064701
v 0.193053 0.739464 -0.064701
v 0.193053 0.739464 0.064701
v -0.218750 0.770742 -0.093750
v 0.218750 0.770742 -0.093750
v 0.218750 0.770742 0.093750
v 0.218750 0.966823 0.093750
v -0.218750 0.770742 0.093750
v 0.218750 0.966823 -0.093750
v 0.250000 0.770742 0.125000
v 0.213345 0.720742 0.081089
v -0.250000 0.770742 0.125000
v -0.213345 0.720742 0.081089
vt 0.875000 0.500000
vt 0.843750 0.515625
vt 0.843750 0.500000
vt 0.625000 0.468750
vt 0.625000 0.500000
vt 0.375000 0.500000
vt 0.875000 0.734375
vt 0.843750 0.750000
vt 0.843750 0.734375
vt 0.625000 0.968750
vt 0.625000 1.000000
vt 0.375000 1.000000
vt 0.125000 0.750000
vt 0.125000 0.500000
vt 0.843750 0.734375
vt 0.875000 0.515625
vt 0.843750 0.515625
vt 0.504167 0.334722
vt 0.843750 0.734375
vt 0.656250 0.515625
vt 0.656250 0.734375
vt 0.656250 0.515625
vt 0.656250 0.500000
vt 0.625000 0.515625
vt 0.656250 0.750000
vt 0.625000 0.734375
vt 0.625000 0.750000
vt 0.375000 0.750000
vt 0.625000 0.234375
vt 0.625000 0.250000
vt 0.375000 0.250000
vt 0.625000 0.500000
vt 0.375000 0.750000
vt 0.375000 0.500000
vt 0.625000 0.750000
vt 0.375000 1.000000
vt 0.656250 0.734375
vt 0.843750 0.734375
vt 0.656250 0.515625
vt -0.006944 0.465278
vt 0.656250 0.515625
vt 0.843750 0.515625
vt 0.012500 0.534722
vt 0.265278 0.465278
vt 0.245833 0.534722
vt 0.843750 0.515625
vt 0.665278 0.498611
vt 0.665278 0.331944
vt 0.125000 0.750000
vt 0.125000 0.500000
vt 0.625000 0.281250
vt 0.875000 0.750000
vt 0.625000 0.781250
vt 0.656250 0.734375
vt 0.375000 0.000000
vt 0.625000 0.000000
vt 0.625000 0.015625
vt 0.625000 1.000000
vt 0.656250 0.734375
vt 0.504167 0.498611
vn 0.0000 -1.0000 0.0000
vn -1.0000 -0.0000 0.0000
vn 0.9999 0.0160 0.0000
vn 0.0000 1.0000 -0.0000
vn 0.0015 -0.0035 1.0000
vn -0.0014 -1.0000 0.0000
vn -0.0000 -0.0000 -1.0000
vn 1.0000 -0.0000 -0.0000
vn 0.0000 -1.0000 0.0033
vn -0.9996 -0.0186 -0.0195
vn 0.0000 0.0000 1.0000
vn 0.0000 -0.6599 0.7514
vn -0.8065 -0.5912 0.0000
vn 0.7727 0.6348 0.0000
vn 0.0332 0.9994 0.0000
vn 0.8065 -0.5912 0.0000
vn -0.0023 -0.6716 -0.7409
vn -0.7727 0.6348 0.0000
vn 0.0000 0.6805 0.7327
vn -0.0000 0.6805 -0.7327
vn 0.9996 0.0185 0.0195
vn 0.0023 0.9994 -0.0341
vn 0.0000 0.0030 -1.0000
vn -0.0015 0.0032 -1.0000
vn 0.0046 1.0000 -0.0046
vn 0.7776 -0.6286 0.0142
vn 0.0000 -0.6599 -0.7514
s off
f 4/1/1 21/2/1 11/3/1
f 9/4/2 8/5/2 7/6/2
f 17/7/1 10/8/1 22/9/1
f 10/10/3 2/11/3 1/12/3
f 7/6/4 1/13/4 3/14/4
f 36/15/5 21/2/5 22/9/5
f 22/9/6 15/16/6 17/7/6
f 32/17/4 23/18/4 31/19/4
f 25/20/7 19/21/7 20/22/7
f 9/23/1 18/24/1 8/5/1
f 21/2/1 9/23/1 11/3/1
f 19/21/1 18/24/1 20/22/1
f 21/2/8 25/20/8 20/22/8
f 22/9/9 12/25/9 19/21/9
f 19/21/10 36/15/10 22/9/10
f 16/26/11 6/27/11 5/28/11
f 15/29/7 4/30/7 3/31/7
f 37/32/12 40/33/12 38/34/12
f 39/35/13 24/36/13 40/33/13
f 35/37/14 27/38/14 31/19/14
f 33/39/15 13/40/15 32/17/15
f 27/38/4 30/41/4 29/42/4
f 14/43/16 37/44/16 38/45/16
f 36/15/1 25/20/1 26/46/1
f 14/47/17 23/18/17 13/48/17
f 32/17/18 30/41/18 33/39/18
f 38/34/1 24/49/1 14/50/1
f 29/42/19 31/19/19 27/38/19
f 30/41/20 35/37/20 33/39/20
f 19/21/1 6/27/1 16/26/1
f 39/35/4 33/39/4 35/37/4
f 23/18/4 35/37/4 31/19/4
f 4/1/1 15/16/1 21/2/1
f 7/6/2 3/31/2 11/51/2
f 3/31/2 4/30/2 11/51/2
f 11/51/2 9/4/2 7/6/2
f 17/7/1 2/52/1 10/8/1
f 1/12/8 5/28/8 12/53/8
f 5/28/8 6/27/8 12/53/8
f 12/53/21 10/10/21 1/12/21
f 7/6/4 5/28/4 1/13/4
f 36/15/11 26/46/11 21/2/11
f 22/9/6 21/2/6 15/16/6
f 32/17/22 13/48/22 23/18/22
f 25/20/7 34/54/7 19/21/7
f 9/23/1 20/22/1 18/24/1
f 21/2/1 20/22/1 9/23/1
f 19/21/1 16/26/1 18/24/1
f 21/2/8 26/46/8 25/20/8
f 22/9/9 10/8/9 12/25/9
f 19/21/2 34/54/2 36/15/2
f 5/28/11 7/6/11 18/24/11
f 7/6/11 8/5/11 18/24/11
f 18/24/11 16/26/11 5/28/11
f 3/31/7 1/55/7 15/29/7
f 1/55/23 2/56/23 17/57/23
f 17/57/24 15/29/24 1/55/24
f 37/32/12 39/35/12 40/33/12
f 39/35/13 23/58/13 24/36/13
f 35/37/14 28/59/14 27/38/14
f 33/39/25 37/44/25 13/40/25
f 27/38/4 28/59/4 30/41/4
f 14/43/26 13/40/26 37/44/26
f 36/15/1 34/54/1 25/20/1
f 14/47/27 24/60/27 23/18/27
f 32/17/18 29/42/18 30/41/18
f 38/34/1 40/33/1 24/49/1
f 29/42/19 32/17/19 31/19/19
f 30/41/20 28/59/20 35/37/20
f 19/21/1 12/25/1 6/27/1
f 39/35/4 37/32/4 33/39/4
f 23/18/4 39/35/4 35/37/4
