# Blender v2.93.6 OBJ File: 'master.blend'
# www.blender.org
o chest_open_Cube.019
v 0.250000 1.000422 -0.125000
v 0.253681 0.769799 -0.125686
v -0.250000 1.000422 -0.125000
v -0.250000 0.770422 -0.125000
v 0.250000 1.000422 0.125000
v 0.250000 0.770422 0.125000
v -0.250000 1.000422 0.125000
v -0.250000 0.770422 0.125000
v -0.250000 0.770422 0.093750
v 0.253681 0.769799 -0.094436
v -0.250000 0.770422 -0.093750
v 0.250000 0.770422 0.093750
v 0.253492 0.770740 -0.125873
v 0.213345 0.757559 -0.191099
v -0.218750 0.770422 -0.125000
v 0.218750 0.770422 0.125000
v 0.222431 0.769799 -0.125686
v -0.218750 0.770422 0.125000
v 0.218750 0.770422 0.093750
v -0.218750 0.770422 0.093750
v -0.218750 0.770422 -0.093750
v 0.222431 0.769799 -0.094436
v -0.250000 0.770740 -0.125873
v -0.213345 0.757559 -0.191099
v -0.218750 0.966823 0.093750
v -0.218750 0.966823 -0.093750
v -0.193053 0.734024 -0.183024
v -0.193053 0.621807 -0.247461
v 0.193053 0.734024 -0.183024
v 0.193053 0.621807 -0.247461
v -0.218750 0.743640 -0.141434
v 0.218750 0.743640 -0.141434
v 0.218750 0.581040 -0.234802
v 0.218750 0.966823 0.093750
v -0.218750 0.581040 -0.234802
v 0.218750 0.966823 -0.093750
v 0.250000 0.553940 -0.250363
v 0.213345 0.616917 -0.271857
v -0.250000 0.553940 -0.250363
v -0.213345 0.616917 -0.271857
vt 0.875000 0.500000
vt 0.843750 0.515625
vt 0.843750 0.500000
vt 0.625000 0.468750
vt 0.625000 0.500000
vt 0.375000 0.500000
vt 0.875000 0.734375
vt 0.843750 0.750000
vt 0.843750 0.734375
vt 0.625000 0.968750
vt 0.625000 1.000000
vt 0.375000 1.000000
vt 0.125000 0.750000
vt 0.125000 0.500000
vt 0.843750 0.734375
vt 0.875000 0.515625
vt 0.843750 0.515625
vt 0.504167 0.334722
vt 0.843750 0.734375
vt 0.656250 0.515625
vt 0.656250 0.734375
vt 0.656250 0.515625
vt 0.656250 0.500000
vt 0.625000 0.515625
vt 0.656250 0.750000
vt 0.625000 0.734375
vt 0.625000 0.750000
vt 0.375000 0.750000
vt 0.625000 0.234375
vt 0.625000 0.250000
vt 0.375000 0.250000
vt 0.625000 0.500000
vt 0.375000 0.750000
vt 0.375000 0.500000
vt 0.625000 0.750000
vt 0.375000 1.000000
vt 0.656250 0.734375
vt 0.843750 0.734375
vt 0.656250 0.515625
vt -0.006944 0.465278
vt 0.656250 0.515625
vt 0.843750 0.515625
vt 0.245833 0.534722
vt 0.012500 0.534722
vt 0.843750 0.515625
vt 0.665278 0.498611
vt 0.665278 0.331944
vt 0.125000 0.750000
vt 0.125000 0.500000
vt 0.656250 0.734375
vt 0.625000 0.281250
vt 0.875000 0.750000
vt 0.625000 0.781250
vt 0.656250 0.734375
vt 0.375000 0.000000
vt 0.625000 0.000000
vt 0.625000 0.015625
vt 0.625000 1.000000
vt 0.265278 0.465278
vt 0.504167 0.498611
vn 0.0000 -1.0000 0.0000
vn -1.0000 -0.0000 0.0000
vn 0.9999 0.0160 0.0000
vn 0.0000 1.0000 -0.0000
vn 0.0015 -0.0035 1.0000
vn -0.0014 -1.0000 0.0000
vn -0.0000 -0.4980 0.8672
vn -0.0000 -0.0000 -1.0000
vn 1.0000 -0.0000 -0.0000
vn 0.0000 -1.0000 0.0033
vn -0.9996 -0.0186 -0.0195
vn 0.0000 0.0000 1.0000
vn 0.0000 -0.3230 -0.9464
vn -0.8065 0.2944 -0.5127
vn 0.7727 -0.3161 0.5505
vn 0.7798 0.3118 -0.5429
vn 0.0000 0.9802 -0.1981
vn -0.7727 -0.3161 0.5505
vn 0.0000 0.4980 -0.8672
vn -0.0000 -0.9743 0.2253
vn -0.0000 0.2966 0.9550
vn 0.9996 0.0185 0.0195
vn 0.0000 0.0030 -1.0000
vn -0.0015 0.0032 -1.0000
vn 0.8017 0.2879 -0.5238
s off
f 4/1/1 21/2/1 11/3/1
f 9/4/2 8/5/2 7/6/2
f 17/7/1 10/8/1 22/9/1
f 10/10/3 2/11/3 1/12/3
f 7/6/4 1/13/4 3/14/4
f 36/15/5 21/2/5 22/9/5
f 22/9/6 15/16/6 17/7/6
f 32/17/7 23/18/7 31/19/7
f 25/20/8 19/21/8 20/22/8
f 9/23/1 18/24/1 8/5/1
f 21/2/1 9/23/1 11/3/1
f 19/21/1 18/24/1 20/22/1
f 21/2/9 25/20/9 20/22/9
f 22/9/10 12/25/10 19/21/10
f 19/21/11 36/15/11 22/9/11
f 16/26/12 6/27/12 5/28/12
f 15/29/8 4/30/8 3/31/8
f 37/32/13 40/33/13 38/34/13
f 39/35/14 24/36/14 40/33/14
f 31/19/15 28/37/15 27/38/15
f 33/39/7 13/40/7 32/17/7
f 27/38/7 30/41/7 29/42/7
f 13/40/16 38/43/16 14/44/16
f 36/15/1 25/20/1 26/45/1
f 14/46/17 23/18/17 13/47/17
f 33/39/18 29/42/18 30/41/18
f 38/34/19 24/48/19 14/49/19
f 29/42/20 31/19/20 27/38/20
f 30/41/21 35/50/21 33/39/21
f 19/21/1 6/27/1 16/26/1
f 37/32/7 35/50/7 39/35/7
f 31/19/7 39/35/7 35/50/7
f 4/1/1 15/16/1 21/2/1
f 7/6/2 3/31/2 11/51/2
f 3/31/2 4/30/2 11/51/2
f 11/51/2 9/4/2 7/6/2
f 17/7/1 2/52/1 10/8/1
f 1/12/9 5/28/9 12/53/9
f 5/28/9 6/27/9 12/53/9
f 12/53/22 10/10/22 1/12/22
f 7/6/4 5/28/4 1/13/4
f 36/15/12 26/45/12 21/2/12
f 22/9/6 21/2/6 15/16/6
f 32/17/7 13/47/7 23/18/7
f 25/20/8 34/54/8 19/21/8
f 9/23/1 20/22/1 18/24/1
f 21/2/1 20/22/1 9/23/1
f 19/21/1 16/26/1 18/24/1
f 21/2/9 26/45/9 25/20/9
f 22/9/10 10/8/10 12/25/10
f 19/21/2 34/54/2 36/15/2
f 5/28/12 7/6/12 18/24/12
f 7/6/12 8/5/12 18/24/12
f 18/24/12 16/26/12 5/28/12
f 3/31/8 1/55/8 15/29/8
f 1/55/23 2/56/23 17/57/23
f 17/57/24 15/29/24 1/55/24
f 37/32/13 39/35/13 40/33/13
f 39/35/14 23/58/14 24/36/14
f 31/19/15 35/50/15 28/37/15
f 33/39/7 37/59/7 13/40/7
f 27/38/7 28/37/7 30/41/7
f 13/40/25 37/59/25 38/43/25
f 36/15/1 34/54/1 25/20/1
f 14/46/17 24/60/17 23/18/17
f 33/39/18 32/17/18 29/42/18
f 38/34/19 40/33/19 24/48/19
f 29/42/20 32/17/20 31/19/20
f 30/41/21 28/37/21 35/50/21
f 19/21/1 12/25/1 6/27/1
f 37/32/7 33/39/7 35/50/7
f 31/19/7 23/18/7 39/35/7
