# Blender v2.93.6 OBJ File: 'master.blend'
# www.blender.org
o slope_Cube.013
v 1.000000 -1.000000 -1.000000
v -1.000000 1.000000 -1.000000
v 1.000000 1.000000 -1.000000
v -1.000000 -1.000000 -1.000000
v -1.000000 1.000000 1.000000
v 1.000000 1.000000 1.000000
vt 1.000000 1.000000
vt 0.833333 0.833333
vt 0.833333 1.000000
vt 0.666667 0.833333
vt 0.500000 1.000000
vt 0.500000 0.833333
vt 0.333333 0.833333
vt 0.333333 1.000000
vt 0.000000 0.500000
vt 0.166667 0.666667
vt 0.166667 0.500000
vt 1.000000 0.833333
vt 0.666667 1.000000
vt 0.000000 0.666667
vn 0.0000 0.0000 1.0000
vn 0.0000 -1.0000 -0.0000
vn -1.0000 -0.0000 0.0000
vn 1.0000 0.0000 -0.0000
vn -0.0000 0.7071 -0.7071
s 1
f 1/1/1 2/2/1 4/3/1
f 5/4/2 3/5/2 6/6/2
f 6/6/3 3/7/3 1/8/3
f 5/4/4 4/3/4 2/2/4
f 6/9/5 4/10/5 5/11/5
f 1/1/1 3/12/1 2/2/1
f 5/4/2 2/13/2 3/5/2
f 6/9/5 1/14/5 4/10/5
