# Blender v2.93.6 OBJ File: 'master.blend'
# www.blender.org
o stairs_down_Cube.031
v 1.000000 -1.000000 -1.000000
v -1.000000 1.000000 -1.000000
v 1.000000 1.000000 -1.000000
v -1.000000 -1.000000 -1.000000
v -1.000000 1.000000 1.000000
v 1.000000 1.000000 1.000000
v 1.000000 -1.000000 -0.666667
v -1.000000 1.000000 -0.666667
v -1.000000 1.000000 -0.333333
v -1.000000 1.000000 0.000000
v -1.000000 1.000000 0.333333
v -1.000000 1.000000 0.666667
v 1.000000 1.000000 -0.666667
v 1.000000 1.000000 -0.333333
v 1.000000 1.000000 -0.000000
v 1.000000 1.000000 0.333333
v 1.000000 1.000000 0.666667
v -1.000000 -1.000000 -0.666667
v 1.000000 -0.666666 -1.000000
v 1.000000 -0.333333 -1.000000
v 1.000000 0.000000 -1.000000
v 1.000000 0.333334 -1.000000
v 1.000000 0.666667 -1.000000
v -1.000000 0.666666 -1.000000
v -1.000000 0.333333 -1.000000
v -1.000000 -0.000000 -1.000000
v -1.000000 -0.333334 -1.000000
v -1.000000 -0.666667 -1.000000
v 1.000000 0.666667 1.000000
v -1.000000 0.666667 1.000000
v 1.000000 -0.666666 -0.666667
v 1.000000 0.000000 -0.666667
v 1.000000 -0.666666 -0.333333
v 1.000000 -0.333333 -0.333333
v 1.000000 0.000000 -0.333333
v 1.000000 -0.333333 -0.000000
v 1.000000 0.000000 -0.000000
v 1.000000 0.333334 -0.000000
v 1.000000 0.666667 -0.000000
v 1.000000 0.000000 0.333333
v 1.000000 0.333334 0.333333
v 1.000000 0.333334 0.666667
v 1.000000 0.666667 0.666667
v -1.000000 0.333333 0.666667
v -1.000000 0.666667 0.666667
v -1.000000 -0.000000 0.333333
v -1.000000 0.333333 0.333333
v -1.000000 -0.333333 0.000000
v -1.000000 -0.000000 0.000000
v -1.000000 0.333333 0.000000
v -1.000000 0.666667 0.000000
v -1.000000 -0.666667 -0.333333
v -1.000000 -0.333333 -0.333333
v -1.000000 -0.000000 -0.333333
v -1.000000 -0.666667 -0.666667
v -1.000000 -0.000000 -0.666667
v -1.000000 -3.000000 -1.000000
v 1.000000 -3.000000 1.000000
v -1.000000 -3.000000 1.000000
v 1.000000 -1.000000 -1.000000
v 1.000000 -1.000000 1.000000
v 1.000000 -3.000000 -1.000000
v -1.000000 -1.000000 -1.000000
v -1.000000 -1.000000 1.000000
v -1.000000 -1.000000 1.000000
v 1.000000 -0.990000 3.000000
v -1.000000 -0.990000 3.000000
v 1.000000 1.000000 1.000000
v 1.000000 1.000000 3.000000
v 1.000000 -1.000000 1.000000
v -1.000000 1.000000 1.000000
v -1.000000 1.000000 3.000000
v -1.000000 -1.000000 -1.000000
v 1.000000 -1.000000 1.000000
v -1.000000 -1.000000 1.000000
v 1.000000 1.000000 -1.000000
v 1.000000 1.000000 1.000000
v 1.000000 -1.000000 -1.000000
v -1.000000 1.000000 -1.000000
v -1.000000 1.000000 1.000000
v -1.000000 -0.990000 3.000000
v 1.000000 -0.989999 5.000000
v -1.000000 -0.990000 5.000000
v 1.000000 1.000000 3.000000
v 1.000000 1.000000 5.000000
v 1.000000 -0.990000 3.000000
v -1.000000 1.000000 3.000000
v -1.000000 1.000000 5.000000
v 1.000000 -3.000000 1.000000
v -1.000000 -1.000000 1.000000
v 1.000000 -1.000000 1.000000
v -0.999999 -3.000000 1.000000
v -1.000000 -0.990000 3.000000
v 1.000000 -0.990000 3.000000
v -3.000000 -0.990001 3.000000
v -1.000000 -0.990000 5.000000
v -3.000000 -0.990000 5.000000
v -1.000000 0.999999 3.000000
v -1.000000 1.000000 5.000000
v -1.000000 -0.990001 3.000000
v -3.000000 0.999999 3.000000
v -3.000000 1.000000 5.000000
vt 0.805556 1.000000
vt 0.833333 0.972222
vt 0.805556 0.972222
vt 0.333333 1.000000
vt 0.361111 0.972222
vt 0.333333 0.972222
vt 0.722222 0.833333
vt 0.694444 0.861111
vt 0.722222 0.888889
vt 0.750000 0.944444
vt 0.777778 0.916667
vt 0.750000 0.916667
vt 0.833333 0.861111
vt 0.833333 0.888889
vt 1.000000 0.888889
vt 0.722222 0.916667
vt 0.750000 0.888889
vt 0.666667 0.861111
vt 0.694444 0.833333
vt 0.666667 0.833333
vt 0.416667 0.916667
vt 0.444444 0.888889
vt 0.416667 0.888889
vt 0.833333 0.805556
vt 1.000000 0.833333
vt 1.000000 0.805556
vt 1.000000 0.777778
vt 0.833333 0.777778
vt 0.388889 0.944444
vt 0.388889 0.916667
vt 0.833333 0.750000
vt 1.000000 0.750000
vt 0.444444 0.833333
vt 0.416667 0.861111
vt 0.500000 0.972222
vt 0.500000 0.944444
vt 0.666667 0.944444
vt 0.666667 0.694444
vt 0.833333 0.666667
vt 0.666667 0.666667
vt 1.000000 0.722222
vt 0.833333 0.722222
vt 0.833333 0.694444
vt 1.000000 0.694444
vt 1.000000 0.666667
vt 0.833333 0.666667
vt 0.666667 0.805556
vt 0.833333 0.833333
vt 0.833333 0.805556
vt 0.472222 0.861111
vt 0.500000 0.833333
vt 0.472222 0.833333
vt 0.833333 0.777778
vt 0.666667 0.777778
vt 0.666667 0.750000
vt 0.833333 0.750000
vt 0.833333 0.722222
vt 0.666667 0.722222
vt 0.833333 0.694444
vt 0.833333 0.944444
vt 0.805556 0.916667
vt 0.333333 0.861111
vt 0.361111 0.916667
vt 0.333333 0.944444
vt 0.166667 0.833333
vt 0.000000 0.666667
vt 0.166667 0.666667
vt 0.333333 0.833333
vt 0.166667 1.000000
vt 0.166667 0.833333
vt 1.000000 0.833333
vt 0.833333 1.000000
vt 0.833333 0.833333
vt 0.666667 1.000000
vt 0.500000 0.833333
vt 0.666667 0.833333
vt 0.166667 0.833333
vt 0.000000 0.666667
vt 0.166667 0.666667
vt 1.000000 0.833333
vt 0.833333 1.000000
vt 0.833333 0.833333
vt 0.833333 1.000000
vt 0.666667 0.833333
vt 0.833333 0.833333
vt 0.500000 1.000000
vt 0.666667 0.833333
vt 0.666667 1.000000
vt 0.166667 0.833333
vt 0.000000 0.666667
vt 0.166667 0.666667
vt 1.000000 0.833333
vt 0.833333 1.000000
vt 0.833333 0.833333
vt 0.500000 1.000000
vt 0.666667 0.833333
vt 0.666667 1.000000
vt 0.500000 1.000000
vt 0.333333 0.833333
vt 0.500000 0.833333
vt 0.166667 0.833333
vt 0.333333 1.000000
vt 0.166667 1.000000
vt 1.000000 0.833333
vt 0.833333 1.000000
vt 0.833333 0.833333
vt 0.500000 0.833333
vt 0.333333 0.833333
vt 0.333333 1.000000
vt 0.666667 0.833333
vt 0.833333 1.000000
vt 0.833333 0.833333
vt 0.000000 0.500000
vt 0.166667 0.666667
vt 0.166667 0.500000
vt 0.833333 1.000000
vt 0.666667 0.833333
vt 0.833333 0.833333
vt 0.500000 1.000000
vt 0.666667 0.833333
vt 0.666667 1.000000
vt 0.500000 1.000000
vt 0.333333 0.833333
vt 0.500000 0.833333
vt 0.166667 0.833333
vt 0.000000 0.666667
vt 0.166667 0.666667
vt 0.333333 0.833333
vt 0.166667 1.000000
vt 0.166667 0.833333
vt 0.833333 1.000000
vt 0.361111 1.000000
vt 0.750000 0.861111
vt 0.750000 0.833333
vt 0.694444 0.888889
vt 0.777778 0.944444
vt 1.000000 0.944444
vt 1.000000 0.972222
vt 1.000000 1.000000
vt 1.000000 0.916667
vt 0.833333 0.916667
vt 1.000000 0.861111
vt 1.000000 0.833333
vt 0.833333 0.833333
vt 0.444444 0.916667
vt 0.833333 0.833333
vt 0.416667 0.944444
vt 0.472222 0.888889
vt 0.416667 0.833333
vt 0.500000 0.888889
vt 0.500000 0.861111
vt 0.666667 0.888889
vt 0.666667 0.861111
vt 0.666667 0.916667
vt 0.500000 0.916667
vt 0.666667 0.972222
vt 0.666667 1.000000
vt 0.500000 1.000000
vt 0.666667 0.833333
vt 0.500000 0.861111
vt 0.777778 0.972222
vt 0.388889 0.833333
vt 0.361111 0.833333
vt 0.333333 0.833333
vt 0.333333 0.888889
vt 0.333333 0.916667
vt 0.388889 0.972222
vt 0.805556 0.833333
vt 0.777778 0.833333
vt -0.000000 0.833333
vt 0.333333 1.000000
vt 1.000000 1.000000
vt 0.500000 1.000000
vt -0.000000 0.833333
vt 1.000000 1.000000
vt 0.666667 1.000000
vt 0.500000 0.833333
vt -0.000000 0.833333
vt 1.000000 1.000000
vt 0.500000 0.833333
vt 0.333333 1.000000
vt 0.333333 0.833333
vt 1.000000 1.000000
vt 0.000000 0.666667
vt 0.666667 1.000000
vt 0.500000 0.833333
vt 0.333333 1.000000
vt -0.000000 0.833333
vt 0.333333 1.000000
vn 1.0000 0.0000 0.0000
vn -1.0000 0.0000 0.0000
vn 0.0000 0.0000 1.0000
vn -0.0000 1.0000 0.0000
vn -0.0000 -0.0000 -1.0000
vn 0.0000 -1.0000 0.0000
vn -0.0000 0.7053 -0.7089
s 1
f 18/1/1 28/2/1 55/3/1
f 1/4/2 31/5/2 19/6/2
f 11/7/1 45/8/1 47/9/1
f 48/10/1 54/11/1 49/12/1
f 24/13/3 25/14/3 22/15/3
f 46/16/1 50/17/1 47/9/1
f 30/18/1 12/19/1 5/20/1
f 37/21/2 41/22/2 38/23/2
f 7/24/4 4/25/4 18/26/4
f 7/24/5 55/27/5 31/28/5
f 34/29/2 37/21/2 35/30/2
f 33/31/4 55/27/4 52/32/4
f 16/33/2 39/34/2 41/22/2
f 13/35/6 14/36/6 9/37/6
f 29/38/5 5/39/5 6/40/5
f 33/31/5 53/41/5 34/42/5
f 36/43/4 53/41/4 48/44/4
f 36/43/5 49/45/5 37/46/5
f 40/47/4 49/48/4 46/49/4
f 43/50/2 6/51/2 17/52/2
f 40/47/5 47/53/5 41/54/5
f 42/55/4 47/53/4 44/56/4
f 42/55/5 45/57/5 43/58/5
f 29/38/4 45/57/4 30/59/4
f 55/3/1 27/60/1 56/61/1
f 23/62/2 32/63/2 38/23/2
f 32/63/2 20/64/2 31/5/2
f 54/11/1 56/61/1 25/14/1
f 59/65/1 63/66/1 64/67/1
f 62/68/4 59/69/4 58/70/4
f 60/71/2 58/72/2 61/73/2
f 68/74/6 72/75/6 71/76/6
f 67/77/1 71/78/1 72/79/1
f 68/80/2 66/81/2 69/82/2
f 73/83/3 76/84/3 79/85/3
f 77/86/6 79/87/6 76/88/6
f 75/89/1 79/90/1 80/91/1
f 76/92/2 74/93/2 77/94/2
f 85/95/6 87/96/6 84/97/6
f 82/98/5 88/99/5 85/100/5
f 82/101/4 81/102/4 83/103/4
f 84/104/2 82/105/2 85/106/2
f 94/107/2 91/108/2 89/109/2
f 93/110/1 92/111/1 90/112/1
f 94/113/7 92/114/7 93/115/7
f 95/116/3 98/117/3 101/118/3
f 99/119/6 101/120/6 98/121/6
f 96/122/5 102/123/5 99/124/5
f 97/125/1 101/126/1 102/127/1
f 100/128/4 97/129/4 96/130/4
f 18/1/1 4/131/1 28/2/1
f 1/4/2 7/132/2 31/5/2
f 50/17/1 51/133/1 47/9/1
f 51/133/1 10/134/1 11/7/1
f 11/7/1 12/19/1 45/8/1
f 51/133/1 11/7/1 47/9/1
f 45/8/1 44/135/1 47/9/1
f 48/10/1 53/136/1 54/11/1
f 27/60/3 28/2/3 20/137/3
f 28/2/3 4/131/3 19/138/3
f 20/137/3 28/2/3 19/138/3
f 4/131/3 1/139/3 19/138/3
f 20/137/3 21/140/3 27/60/3
f 21/140/3 22/15/3 26/141/3
f 27/60/3 21/140/3 26/141/3
f 25/14/3 26/141/3 22/15/3
f 22/15/3 23/142/3 24/13/3
f 23/142/3 3/143/3 2/144/3
f 2/144/3 24/13/3 23/142/3
f 46/16/1 49/12/1 50/17/1
f 30/18/1 45/8/1 12/19/1
f 37/21/2 40/145/2 41/22/2
f 7/24/4 1/146/4 4/25/4
f 7/24/5 18/26/5 55/27/5
f 34/29/2 36/147/2 37/21/2
f 33/31/4 31/28/4 55/27/4
f 42/148/2 43/50/2 41/22/2
f 43/50/2 17/52/2 16/33/2
f 16/33/2 15/149/2 39/34/2
f 43/50/2 16/33/2 41/22/2
f 39/34/2 38/23/2 41/22/2
f 16/150/6 17/151/6 11/152/6
f 17/151/6 6/51/6 12/153/6
f 11/152/6 17/151/6 12/153/6
f 6/51/6 5/20/6 12/153/6
f 11/152/6 10/154/6 16/150/6
f 10/154/6 9/37/6 15/155/6
f 16/150/6 10/154/6 15/155/6
f 14/36/6 15/155/6 9/37/6
f 9/37/6 8/156/6 13/35/6
f 8/156/6 2/157/6 3/158/6
f 3/158/6 13/35/6 8/156/6
f 29/38/5 30/59/5 5/39/5
f 33/31/5 52/32/5 53/41/5
f 36/43/4 34/42/4 53/41/4
f 36/43/5 48/44/5 49/45/5
f 40/47/4 37/159/4 49/48/4
f 43/50/2 29/160/2 6/51/2
f 40/47/5 46/49/5 47/53/5
f 42/55/4 41/54/4 47/53/4
f 42/55/5 44/56/5 45/57/5
f 29/38/4 43/58/4 45/57/4
f 56/61/1 54/11/1 53/136/1
f 53/136/1 52/161/1 55/3/1
f 55/3/1 28/2/1 27/60/1
f 27/60/1 26/141/1 56/61/1
f 56/61/1 53/136/1 55/3/1
f 38/23/2 39/34/2 14/162/2
f 39/34/2 15/149/2 14/162/2
f 14/162/2 13/163/2 38/23/2
f 13/163/2 3/164/2 23/62/2
f 38/23/2 13/163/2 23/62/2
f 35/30/2 37/21/2 38/23/2
f 22/165/2 21/166/2 32/63/2
f 32/63/2 35/30/2 38/23/2
f 23/62/2 22/165/2 32/63/2
f 33/167/2 34/29/2 31/5/2
f 34/29/2 35/30/2 32/63/2
f 32/63/2 21/166/2 20/64/2
f 34/29/2 32/63/2 31/5/2
f 20/64/2 19/6/2 31/5/2
f 2/144/1 8/168/1 24/13/1
f 8/168/1 9/169/1 24/13/1
f 9/169/1 10/134/1 51/133/1
f 50/17/1 49/12/1 54/11/1
f 9/169/1 51/133/1 50/17/1
f 56/61/1 26/141/1 25/14/1
f 25/14/1 24/13/1 54/11/1
f 24/13/1 9/169/1 54/11/1
f 9/169/1 50/17/1 54/11/1
f 59/65/1 57/170/1 63/66/1
f 62/68/4 57/171/4 59/69/4
f 60/71/2 62/172/2 58/72/2
f 68/74/6 69/173/6 72/75/6
f 67/77/1 65/174/1 71/78/1
f 68/80/2 70/175/2 66/81/2
f 73/83/3 78/176/3 76/84/3
f 77/86/6 80/177/6 79/87/6
f 75/89/1 73/178/1 79/90/1
f 76/92/2 78/179/2 74/93/2
f 85/95/6 88/180/6 87/96/6
f 82/98/5 83/181/5 88/99/5
f 82/101/4 86/182/4 81/102/4
f 84/104/2 86/183/2 82/105/2
f 94/113/7 89/184/7 92/114/7
f 95/116/3 100/185/3 98/117/3
f 99/119/6 102/186/6 101/120/6
f 96/122/5 97/187/5 102/123/5
f 97/125/1 95/188/1 101/126/1
f 100/128/4 95/189/4 97/129/4
