# Blender v2.93.6 OBJ File: 'master.blend'
# www.blender.org
o topless.003_Cube.017
v -1.000000 -1.000000 -1.000000
v -1.000000 -1.000000 1.000000
v 1.000000 1.000000 -1.000000
v 1.000000 1.000000 1.000000
v -1.000000 1.000000 -1.000000
v -1.000000 1.000000 1.000000
vt 0.500000 1.000000
vt 0.666667 0.833333
vt 0.666667 1.000000
vt 0.166667 0.833333
vt 0.000000 0.666667
vt 0.166667 0.666667
vt 0.500000 0.833333
vt -0.000000 0.833333
vn 0.0000 -1.0000 0.0000
vn 1.0000 -0.0000 0.0000
s 1
f 4/1/1 5/2/1 3/3/1
f 2/4/2 5/5/2 6/6/2
f 4/1/1 6/7/1 5/2/1
f 2/4/2 1/8/2 5/5/2
